<svg width="25" height="25" viewBox="0 0 25 25" fill="none" xmlns="http://www.w3.org/2000/svg">
<g clip-path="url(#clip0)">
<path d="M12.6665 9.91665C13.4882 10.695 13.9448 11.5233 14.1315 12.4658C14.1848 12.7391 15.6765 12.4658 16.7357 13.2125C17.2215 13.56 17.9682 14.0458 18.559 15.1225C19.2257 14.2891 19.7507 13.2508 19.7507 12.0841C19.7507 9.50081 17.7507 7.41748 15.0832 7.41748C13.6673 7.41748 12.3607 8.11498 11.5273 9.11581C11.8598 9.28165 12.1173 9.44415 12.6665 9.91665V9.91665Z" fill="#EFC319"/>
<path d="M21.9999 5.75004C21.9999 5.9167 21.9157 6.1667 21.8332 6.25003C21.4165 6.6667 20.9999 7.1667 20.499 7.58337C20.249 7.83337 19.9165 7.9167 19.5824 7.75004C19.0824 7.50004 18.999 6.9167 19.4157 6.50004C19.7499 6.1667 19.9999 5.9167 20.3332 5.58337C20.499 5.4167 20.5832 5.33337 20.7499 5.1667C20.9999 4.9167 21.2499 4.9167 21.5832 5.00004C21.8332 5.1667 21.9999 5.4167 21.9999 5.75004V5.75004Z" fill="#EFC319"/>
<path d="M22.9166 11.25H23.8333C24.25 11.25 24.5833 11.5833 24.5833 12C24.5833 12.4167 24.25 12.75 23.8333 12.75H21.9166C21.5 12.75 21.1675 12.4167 21.1675 12C21.1675 11.5833 21.5 11.25 21.9166 11.25H22.9166Z" fill="#EFC319"/>
<path d="M14.1667 3.99992V3.08325C14.1667 2.66659 14.5001 2.33325 14.9167 2.33325C15.3334 2.33325 15.6667 2.58325 15.6667 2.99992V4.99992C15.6667 5.41659 15.3342 5.74992 14.9176 5.74992C14.5009 5.74992 14.1667 5.41659 14.1667 4.99992V3.99992V3.99992Z" fill="#EFC319"/>
<path d="M8.58328 4.9165C8.83328 4.9165 8.99995 4.99984 9.16661 5.1665C9.33328 5.33317 9.58328 5.49984 9.74995 5.74984C10.0833 6.08317 10.0833 6.58317 9.74995 6.83317C9.49995 7.08317 8.99995 7.08317 8.66661 6.83317C8.41661 6.6665 8.24995 6.4165 8.08328 6.1665C7.83328 5.9165 7.83328 5.6665 7.99995 5.33317C8.08328 5.08317 8.33328 4.9165 8.58328 4.9165V4.9165Z" fill="#EFC319"/>
<path d="M21.2499 19.0833C21.0832 19.0833 20.9165 19 20.7499 18.9167C20.5832 18.75 20.4165 18.5833 20.1665 18.4167C19.8332 18.0833 19.7499 17.5833 20.0824 17.25C20.4157 16.9167 20.9157 16.9167 21.249 17.25L21.8324 17.8333C22.0824 18.0833 22.0824 18.3333 21.999 18.5833C21.8332 18.8333 21.5832 19.0833 21.2499 19.0833V19.0833Z" fill="#EFC319"/>
<path fill-rule="evenodd" clip-rule="evenodd" d="M9.50167 21.6641H4.69667C4.11667 21.6641 3.55083 21.585 3.00333 21.38C1.8475 20.9441 0.982501 20.185 0.462501 19.0608C-0.176666 17.6783 -0.164999 16.2925 0.565834 14.9516C1.1825 13.8216 2.13 13.0733 3.38833 12.7466C3.51833 12.7125 3.57083 12.6541 3.60167 12.5258C3.7925 11.7391 4.135 11.025 4.66 10.4041C5.46917 9.4483 6.47083 8.80164 7.705 8.54997C9.03 8.27997 10.3092 8.4258 11.4975 9.09247C12.835 9.84164 13.7425 10.9483 14.14 12.4441C14.1717 12.5616 14.2225 12.5875 14.3325 12.585C15.0592 12.5683 15.7592 12.6891 16.4192 13.0058C17.1 13.3308 17.6583 13.8025 18.1175 14.395C18.8467 15.3366 19.1125 16.4108 18.9967 17.5833C18.7942 19.6366 17.2125 21.3016 15.1867 21.6033C14.9042 21.645 14.6175 21.66 14.3317 21.6608C12.7233 21.6675 11.1125 21.6641 9.50167 21.6641V21.6641ZM9.51917 20.0941C11.1342 20.0941 12.7483 20.0966 14.3642 20.0916C14.6008 20.0908 14.8433 20.0758 15.0767 20.0316C16.47 19.7675 17.6958 18.3991 17.4658 16.7133C17.2742 15.3083 16.0267 14.1783 14.605 14.1491C14.0842 14.1391 13.5625 14.145 13.0417 14.1458C12.9167 14.1458 12.855 14.0975 12.8433 13.9683C12.8275 13.79 12.7925 13.6125 12.7725 13.435C12.6642 12.5058 12.2908 11.7066 11.6108 11.06C10.615 10.1125 9.42917 9.80247 8.09167 10.0366C7.3975 10.1583 6.79583 10.4791 6.2725 10.9458C5.69667 11.4583 5.29083 12.0816 5.11333 12.8366C5.02833 13.1925 4.98417 13.5583 4.92917 13.92C4.91417 14.0158 4.87083 14.06 4.775 14.0733C4.5125 14.1066 4.24917 14.1391 3.98917 14.1858C3.28 14.3141 2.70667 14.6708 2.2425 15.22C1.2425 16.4008 1.37083 18.2425 2.515 19.2841C3.125 19.84 3.83417 20.095 4.64917 20.095C6.2725 20.0933 7.89583 20.0941 9.51917 20.0941V20.0941Z" fill="#7F7F7F"/>
</g>
<defs>
<clipPath id="clip0">
<rect width="25" height="25" fill="white"/>
</clipPath>
</defs>
</svg>
